<svg width="31" height="31" viewBox="0 0 31 31" fill="none" xmlns="http://www.w3.org/2000/svg">
<g clip-path="url(#clip0)">
<path d="M30.6703 12.5976L15.9758 1.83863C15.6925 1.6312 15.3075 1.6312 15.0243 1.83863L0.329652 12.5976C-0.0292701 12.8605 -0.107255 13.3645 0.155579 13.7234C0.418413 14.0823 0.922466 14.1602 1.28133 13.8975L15.5 3.48678L29.7186 13.8974C29.862 14.0024 30.0286 14.053 30.1938 14.053C30.4418 14.053 30.6865 13.9389 30.8443 13.7233C31.1072 13.3645 31.0292 12.8605 30.6703 12.5976Z" fill="white"/>
<path d="M26.7766 14.0798C26.3318 14.0798 25.9711 14.4404 25.9711 14.8852V27.706H19.5276V20.7076C19.5276 18.4867 17.7208 16.68 15.5 16.68C13.2793 16.68 11.4725 18.4869 11.4725 20.7076V27.706H5.02888V14.8853C5.02888 14.4405 4.6682 14.0798 4.22342 14.0798C3.77865 14.0798 3.41797 14.4405 3.41797 14.8853V28.5115C3.41797 28.9564 3.77865 29.317 4.22342 29.317H12.2779C12.7015 29.317 13.0481 28.9897 13.0802 28.5743C13.0822 28.5554 13.0834 28.5349 13.0834 28.5115V20.7077C13.0834 19.3751 14.1675 18.291 15.5 18.291C16.8326 18.291 17.9167 19.3751 17.9167 20.7077V28.5115C17.9167 28.5347 17.9179 28.555 17.9199 28.5735C17.9516 28.9893 18.2983 29.317 18.7222 29.317H26.7767C27.2215 29.317 27.5821 28.9564 27.5821 28.5115V14.8853C27.582 14.4404 27.2214 14.0798 26.7766 14.0798Z" fill="white"/>
</g>
<defs>
<clipPath id="clip0">
<rect width="31" height="31" fill="white"/>
</clipPath>
</defs>
</svg>
